<?xml version="1.0" encoding="utf-8"?>
<!-- Svg Vector Icons : http://www.onlinewebfonts.com/icon -->
<!DOCTYPE svg PUBLIC "-//W3C//DTD SVG 1.1//EN" "http://www.w3.org/Graphics/SVG/1.1/DTD/svg11.dtd">
<svg version="1.1" xmlns="http://www.w3.org/2000/svg" xmlns:xlink="http://www.w3.org/1999/xlink" x="0px" y="0px" viewBox="0 0 1000 1000" enable-background="new 0 0 1000 1000" xml:space="preserve">
<metadata> Svg Vector Icons : http://www.onlinewebfonts.com/icon </metadata>
<g><g><path d="M990,50.8v898.3c0,11.1-4,20.6-12.1,28.7c-8.1,8.1-17.7,12.1-28.7,12.1H622.5c-11.1,0-20.6-4-28.7-12.1c-8.1-8.1-12.1-17.7-12.1-28.7V50.8c0-11.1,4-20.6,12.1-28.7C601.9,14,611.4,10,622.5,10h326.7c11.1,0,20.6,4,28.7,12.1C986,30.2,990,39.8,990,50.8z M418.3,50.8v898.3c0,11.1-4,20.6-12.1,28.7c-8.1,8.1-17.7,12.1-28.7,12.1H50.8c-11.1,0-20.6-4-28.7-12.1C14,969.8,10,960.2,10,949.2V50.8c0-11.1,4-20.6,12.1-28.7C30.2,14,39.8,10,50.8,10h326.7c11.1,0,20.6,4,28.7,12.1C414.3,30.2,418.3,39.8,418.3,50.8z" fill="#FAFAFA"/></g></g>
</svg>