<?xml version="1.0" encoding="utf-8"?>
<!-- Svg Vector Icons : http://www.onlinewebfonts.com/icon -->
<!DOCTYPE svg PUBLIC "-//W3C//DTD SVG 1.1//EN" "http://www.w3.org/Graphics/SVG/1.1/DTD/svg11.dtd">
<svg version="1.1" xmlns="http://www.w3.org/2000/svg" xmlns:xlink="http://www.w3.org/1999/xlink" x="0px" y="0px" viewBox="0 0 1000 1000" enable-background="new 0 0 1000 1000" xml:space="preserve">
<metadata> Svg Vector Icons : http://www.onlinewebfonts.com/icon </metadata>
<g><path fill="#FAFAFA" d="M818.7,816.2c-7.8,5.9-17,8.8-27.4,8.8c-13.1,0-24.3-4.7-33.8-14.2c-9.5-9.5-14.2-20.7-14.2-33.8c0-14.4,5.5-26.4,16.6-36.2c0.7-0.7,1.3-1.1,2-1.5c0.7-0.3,1.3-0.8,2-1.5l1-1c18.3-12.4,35.2-27.1,50.9-44.1c15.7-17,29.4-35.4,41.1-55.3c11.8-19.9,20.9-41.1,27.4-63.6c6.5-22.5,9.8-45.8,9.8-70c0-49-12.4-93.7-37.2-134.1c-24.8-40.5-55.8-73.8-93-99.9c-13.7-9.8-20.6-22.8-20.6-39.2c0-13.1,4.7-24.3,14.2-33.8c9.5-9.5,20.7-14.2,33.8-14.2c11.1,0,20.9,3.6,29.4,10.8c24.2,17,46.7,36.7,67.6,59.2c20.9,22.5,38.8,47,53.8,73.4c15,26.4,26.8,54.7,35.2,84.7c8.5,30,12.7,61,12.7,93c0,32.6-4.2,64-12.7,94c-8.5,30-20.4,58.4-35.7,85.2s-33.4,51.4-54.3,73.9C866.3,779.5,843.5,799.2,818.7,816.2L818.7,816.2z M763.8,376.6c13.7,18.9,24.6,38,32.8,57.3c8.2,19.3,12.2,42.6,12.2,70c0,26.1-4.2,49.6-12.7,70.5c-8.5,20.9-19.3,39.8-32.3,56.8c-5.2,7.2-10.8,13.5-16.6,19.1c-5.9,5.5-13.4,8.3-22.5,8.3c-11.8,0-21.7-4.2-29.9-12.7c-8.2-8.5-12.2-18.6-12.2-30.3c0-5.2,1-10.4,2.9-15.7h-1c3.3-7.2,7.2-14,11.7-20.6c4.6-6.5,9-13.2,13.2-20.1c4.2-6.9,7.8-14.7,10.8-23.5c2.9-8.8,4.4-19.4,4.4-31.8c0-11.7-1.5-22-4.4-30.8c-2.9-8.8-6.5-16.8-10.8-24c-4.2-7.2-8.6-14-13.2-20.6c-4.6-6.5-8.2-13.4-10.8-20.6c-2-4.6-2.9-9.8-2.9-15.7c0-11.7,4.1-21.9,12.2-30.3c8.2-8.5,18.1-12.7,29.9-12.7c9.1,0,16.6,2.8,22.5,8.3C753.1,363,758.6,369.4,763.8,376.6L763.8,376.6z M447.6,958.1c-33.3-30-68.5-61.4-105.7-94c-37.2-32.6-71.8-62.7-103.8-90.1c-37.2-31.3-74.4-62.3-111.6-93c-7.2,0.7-14.4,1-21.5,1c-5.9,0.7-12.1,1-18.6,1H69.7c-17.6,0-32-5.4-43.1-16.2S10,643.2,10,628.2V381.5h1l-1-1c0-18.3,5.7-33.3,17.1-45c11.4-11.7,25.6-17.6,42.6-17.6h55.8c60-50.9,114.5-96.6,163.5-137.1c20.9-17.6,41.4-34.8,61.7-51.4c20.2-16.6,38.5-31.8,54.8-45.5c16.3-13.7,30-25.1,41.1-34.3c11.1-9.1,17.9-14.7,20.6-16.6c19.6-14.4,35.4-20.9,47.5-19.6c12.1,1.3,21.5,7.2,28.4,17.6s11.6,23.2,14.2,38.2c2.6,15,3.9,28.7,3.9,41.1v790.1v2.9c0,12.4-2.3,25.6-6.9,39.6c-4.6,14-11.6,25.1-21,33.3c-9.5,8.2-21.4,11.6-35.7,10.3S466.6,975.8,447.6,958.1L447.6,958.1z"/></g>
</svg>