<?xml version="1.0" encoding="utf-8"?>
<!-- Svg Vector Icons : http://www.onlinewebfonts.com/icon -->
<!DOCTYPE svg PUBLIC "-//W3C//DTD SVG 1.1//EN" "http://www.w3.org/Graphics/SVG/1.1/DTD/svg11.dtd">
<svg version="1.1" xmlns="http://www.w3.org/2000/svg" xmlns:xlink="http://www.w3.org/1999/xlink" x="0px" y="0px" viewBox="0 0 1000 1000" enable-background="new 0 0 1000 1000" xml:space="preserve">
<metadata> Svg Vector Icons : http://www.onlinewebfonts.com/icon </metadata>
<g><g><g><path fill="#FAFAFA" d="M634,67.3c-15.4,0-28.7,5.6-39.9,16.8L299,273.1H66.7c-15.4,0-28.7,5.6-39.9,16.8C15.6,301.1,10,314.4,10,329.8v340.4c0,15.4,5.6,28.7,16.8,39.9c11.2,11.2,24.5,16.8,39.9,16.8H299l295.2,188.9c11.2,11.2,24.5,16.8,39.9,16.8c15.4,0,28.7-5.6,39.9-16.8c11.2-11.2,16.8-24.5,16.8-39.9V124.1c0-15.4-5.6-28.7-16.8-39.9C662.7,73,649.4,67.3,634,67.3z"/><path d="M852.6,291.7c-5.9-2.9-13.3-4.4-22.2-4.4c-15.4,0-28.7,5.5-39.9,16.4c-11.2,10.9-16.8,24.4-16.8,40.3c0,12.4,3.5,22.9,10.6,31.5c7.1,8.6,15.7,15.9,25.7,22.2c10,6.2,20.1,13,30.1,20.4c10,7.4,18.6,17.9,25.7,31.5c7.1,13.6,10.6,30.4,10.6,50.5c0,20.1-3.5,36.9-10.6,50.5c-7.1,13.6-15.7,24.1-25.7,31.5c-10.1,7.4-20.1,14.2-30.1,20.4c-10.1,6.2-18.6,13.6-25.7,22.2c-7.1,8.6-10.6,19.1-10.6,31.5c0,16,5.6,29.4,16.8,40.3c11.2,10.9,24.5,16.4,39.9,16.4c8.9,0,16.2-1.5,22.2-4.4c41.4-16.5,74.6-44.2,99.7-82.9C977.4,586.7,990,544.9,990,500c0-44.9-12.6-86.9-37.7-125.9C927.2,335.1,894,307.6,852.6,291.7z"/></g></g><g></g><g></g><g></g><g></g><g></g><g></g><g></g><g></g><g></g><g></g><g></g><g></g><g></g><g></g><g></g></g>
</svg>